<svg id="svg" xmlns="http://www.w3.org/2000/svg" xmlns:xlink="http://www.w3.org/1999/xlink" width="400" height="107.11150131694468" viewBox="0, 0, 400,107.11150131694468"><g id="svgg"><path id="path0" d="M144.005 0.761 C 138.832 4.272,141.174 11.414,147.498 11.414 C 155.785 11.414,156.021 0.469,147.743 0.064 C 145.552 -0.043,145.054 0.049,144.005 0.761 M102.546 25.461 L 102.546 49.166 106.912 49.166 L 111.279 49.166 111.390 38.718 C 111.513 27.195,111.516 27.174,113.906 24.657 C 116.629 21.787,122.299 21.868,125.087 24.815 C 126.698 26.517,126.778 27.162,126.778 38.478 L 126.778 49.166 131.184 49.166 L 135.591 49.166 135.486 36.787 L 135.382 24.407 134.290 22.125 C 130.346 13.876,117.400 12.006,112.906 19.034 C 111.333 21.494,111.326 21.458,111.326 11.238 L 111.326 1.756 106.936 1.756 L 102.546 1.756 102.546 25.461 M12.195 14.948 C 8.352 15.879,-0.863 22.340,0.351 23.252 C 0.448 23.324,2.074 24.389,3.964 25.619 L 7.401 27.854 9.216 25.818 C 14.091 20.348,23.529 21.114,23.529 26.979 C 23.529 28.250,23.831 28.169,16.155 28.970 C 7.640 29.859,5.817 30.354,2.906 32.570 C -1.501 35.926,-0.885 44.388,4.005 47.676 C 9.207 51.174,18.506 50.560,22.094 46.483 C 23.820 44.523,23.881 44.542,23.881 47.059 L 23.881 49.166 28.270 49.166 L 32.660 49.166 32.658 38.367 C 32.654 23.825,32.215 21.611,28.688 18.360 C 24.888 14.858,18.243 13.483,12.195 14.948 M75.728 14.956 C 63.804 17.842,58.709 33.201,66.321 43.310 C 73.669 53.067,90.851 51.892,95.849 41.290 C 97.559 37.661,97.579 36.981,95.985 36.563 C 93.205 35.835,88.902 34.767,88.749 34.767 C 88.662 34.767,88.396 35.462,88.158 36.310 C 86.951 40.620,82.356 42.820,77.562 41.383 C 70.168 39.168,69.547 27.107,76.640 23.488 C 81.440 21.039,88.499 24.422,88.499 29.171 C 88.499 29.693,88.989 29.637,92.916 28.667 L 97.333 27.577 97.127 26.519 C 95.487 18.064,85.401 12.614,75.728 14.956 M169.945 15.042 C 153.416 19.357,153.542 44.529,170.117 49.347 C 174.976 50.760,181.962 49.608,185.734 46.771 C 187.335 45.567,190.342 42.283,190.342 41.738 C 190.342 41.032,182.830 37.207,182.523 37.757 C 178.747 44.503,168.533 43.287,166.995 35.909 L 166.757 34.767 179.077 34.767 L 191.396 34.767 191.396 31.505 C 191.396 19.383,181.731 11.966,169.945 15.042 M54.464 15.482 C 52.416 15.884,50.544 17.162,49.695 18.739 C 48.720 20.550,48.464 20.341,48.464 17.735 L 48.464 15.452 44.249 15.452 L 40.035 15.452 40.035 32.309 L 40.035 49.166 44.425 49.166 L 48.815 49.166 48.815 38.829 C 48.815 24.565,49.272 23.743,57.460 23.279 L 61.106 23.072 61.106 19.087 L 61.106 15.101 58.560 15.139 C 57.160 15.161,55.316 15.315,54.464 15.482 M142.932 32.309 L 142.932 49.166 147.498 49.166 L 152.063 49.166 152.063 32.309 L 152.063 15.452 147.498 15.452 L 142.932 15.452 142.932 32.309 M178.691 23.146 C 180.213 23.923,181.700 25.810,182.106 27.480 L 182.341 28.446 174.572 28.446 L 166.804 28.446 167.353 27.129 C 169.250 22.583,174.187 20.849,178.691 23.146 M23.522 35.558 C 23.488 40.516,16.033 44.446,11.302 42.000 C 8.148 40.369,8.601 36.743,12.056 35.965 C 12.970 35.759,21.531 34.586,23.090 34.454 C 23.361 34.431,23.526 34.855,23.522 35.558 M44.510 58.024 C 40.937 60.095,40.967 66.045,44.561 68.065 C 51.530 71.982,57.866 62.518,51.277 58.033 C 49.676 56.944,46.381 56.940,44.510 58.024 M144.688 57.531 C 140.330 59.506,139.891 66.041,143.977 68.125 C 148.483 70.424,153.292 67.798,153.292 63.038 C 153.292 58.726,148.633 55.744,144.688 57.531 M2.107 82.704 L 2.107 106.409 6.497 106.409 L 10.887 106.409 10.887 103.951 C 10.887 101.216,11.088 100.992,12.116 102.580 C 14.139 105.706,17.874 107.249,22.942 107.053 C 41.127 106.349,43.174 76.201,25.323 71.994 C 20.687 70.901,15.772 72.294,12.869 75.523 C 12.009 76.479,11.212 77.261,11.096 77.261 C 10.981 77.261,10.887 73.152,10.887 68.130 L 10.887 58.999 6.497 58.999 L 2.107 58.999 2.107 82.704 M84.987 68.130 C 84.987 73.152,84.892 77.261,84.777 77.261 C 84.662 77.261,83.864 76.479,83.005 75.523 C 78.058 70.020,68.349 70.446,62.904 76.404 C 54.807 85.264,57.376 101.172,67.680 105.981 C 73.124 108.521,80.989 106.858,83.758 102.580 C 84.785 100.992,84.987 101.216,84.987 103.951 L 84.987 106.409 89.377 106.409 L 93.766 106.409 93.766 82.704 L 93.766 58.999 89.377 58.999 L 84.987 58.999 84.987 68.130 M126.427 68.130 C 126.427 73.152,126.308 77.261,126.163 77.261 C 126.018 77.260,125.230 76.483,124.412 75.532 C 118.507 68.676,106.072 71.237,101.652 80.220 C 95.569 92.583,102.692 107.070,114.870 107.103 C 119.636 107.116,122.954 105.657,125.031 102.634 C 126.175 100.969,126.427 101.206,126.427 103.951 L 126.427 106.409 130.817 106.409 L 135.206 106.409 135.206 82.704 L 135.206 58.999 130.817 58.999 L 126.427 58.999 126.427 68.130 M326.953 82.704 L 326.953 106.409 331.343 106.409 L 335.733 106.409 335.733 103.911 L 335.733 101.413 337.752 103.504 C 345.454 111.481,358.890 106.463,361.928 94.476 C 366.048 78.222,348.386 64.212,337.837 75.365 C 336.851 76.408,335.974 77.261,335.889 77.261 C 335.803 77.261,335.733 73.152,335.733 68.130 L 335.733 58.999 331.343 58.999 L 326.953 58.999 326.953 82.704 M167.340 72.129 C 161.503 73.550,158.374 77.202,158.392 82.569 C 158.414 88.908,161.872 91.143,174.815 93.187 C 179.902 93.990,181.403 95.873,178.742 98.112 C 174.990 101.269,166.978 99.549,164.102 94.969 C 162.924 93.095,162.867 93.101,158.925 95.574 C 155.262 97.872,155.264 97.763,158.824 101.303 C 169.250 111.671,188.399 108.043,188.408 95.698 C 188.413 89.397,185.286 87.178,173.845 85.363 C 167.872 84.415,166.333 83.486,167.155 81.323 C 168.546 77.665,175.564 78.508,180.123 82.879 L 181.959 84.639 184.916 82.330 C 188.677 79.393,188.590 79.780,186.027 77.382 C 180.952 72.635,173.669 70.588,167.340 72.129 M206.146 71.854 C 189.570 74.925,186.389 97.954,201.506 105.447 L 204.511 106.936 209.279 106.936 C 218.779 106.936,223.670 103.493,226.303 94.953 C 226.517 94.262,226.264 94.142,222.748 93.271 C 220.667 92.755,218.702 92.254,218.382 92.158 C 217.938 92.025,217.658 92.412,217.198 93.795 C 214.096 103.135,200.800 99.671,200.759 89.512 C 200.716 78.780,215.051 75.859,217.509 86.100 L 217.734 87.038 222.037 85.894 C 226.993 84.576,226.893 84.741,225.109 80.870 C 222.080 74.296,213.916 70.414,206.146 71.854 M242.541 72.199 C 233.043 74.498,227.513 84.755,230.318 94.871 C 234.837 111.168,259.096 111.439,264.096 95.247 C 268.397 81.324,256.666 68.780,242.541 72.199 M379.104 72.135 C 362.521 76.232,361.801 101.364,378.123 106.406 C 383.733 108.139,390.880 106.936,395.094 103.549 C 396.236 102.631,398.946 99.393,398.946 98.947 C 398.946 98.253,391.440 94.440,391.138 94.980 C 387.380 101.695,377.083 100.485,375.593 93.152 L 375.361 92.011 387.681 92.011 L 400.000 92.011 400.000 88.536 C 400.000 76.828,390.450 69.333,379.104 72.135 M285.167 72.658 C 283.313 73.320,281.650 74.737,280.176 76.910 C 279.589 77.774,279.580 77.749,279.562 75.241 L 279.543 72.695 275.154 72.695 L 270.764 72.695 270.764 89.552 L 270.764 106.409 275.140 106.409 L 279.516 106.409 279.618 94.845 C 279.733 81.718,279.653 82.089,282.725 80.485 C 285.547 79.012,288.825 79.923,290.166 82.553 C 290.713 83.626,290.780 84.995,290.781 95.083 L 290.781 106.409 295.158 106.409 L 299.534 106.409 299.635 94.845 C 299.750 81.718,299.670 82.089,302.742 80.485 C 305.564 79.012,308.842 79.923,310.184 82.553 C 310.731 83.626,310.798 84.995,310.798 95.083 L 310.799 106.409 315.209 106.409 L 319.618 106.409 319.511 93.503 L 319.403 80.597 318.490 78.649 C 315.861 73.046,309.546 70.552,303.697 72.808 C 302.160 73.402,298.859 76.465,298.859 77.299 C 298.859 78.101,297.881 77.420,296.927 75.953 C 294.724 72.563,289.517 71.104,285.167 72.658 M43.547 89.552 L 43.547 106.409 47.937 106.409 L 52.327 106.409 52.327 89.552 L 52.327 72.695 47.937 72.695 L 43.547 72.695 43.547 89.552 M142.932 89.552 L 142.932 106.409 147.322 106.409 L 151.712 106.409 151.712 89.552 L 151.712 72.695 147.322 72.695 L 142.932 72.695 142.932 89.552 M23.136 80.142 C 30.873 82.514,30.651 96.260,22.835 98.856 C 16.572 100.936,11.092 96.512,11.092 89.377 C 11.092 82.095,16.352 78.062,23.136 80.142 M80.200 80.717 C 86.602 84.144,86.416 94.963,79.895 98.444 C 75.384 100.851,69.360 98.395,67.610 93.435 C 64.471 84.538,72.392 76.536,80.200 80.717 M121.424 80.649 C 125.519 82.600,127.535 89.151,125.469 93.800 C 121.306 103.171,108.441 100.103,108.392 89.728 C 108.354 81.773,114.618 77.408,121.424 80.649 M348.282 80.295 C 351.700 81.516,353.872 85.680,353.567 90.426 C 352.801 102.357,336.778 102.358,335.820 90.426 C 335.197 82.672,341.223 77.773,348.282 80.295 M387.295 80.389 C 388.817 81.166,390.304 83.053,390.710 84.723 L 390.945 85.689 383.357 85.689 C 374.813 85.689,375.029 85.772,376.564 83.088 C 378.538 79.636,383.414 78.410,387.295 80.389 M250.013 80.269 C 257.973 82.633,258.033 96.248,250.094 98.627 C 243.516 100.597,238.016 95.773,238.537 88.490 C 238.991 82.145,244.072 78.505,250.013 80.269 " stroke="none" fill="#000000" fill-rule="evenodd"></path></g></svg>